<?xml version="1.0" encoding="UTF-8"?>
<svg width="13px" height="17px" viewBox="0 0 13 17" version="1.1" xmlns="http://www.w3.org/2000/svg" xmlns:xlink="http://www.w3.org/1999/xlink">
    <!-- Generator: Sketch 63.1 (92452) - https://sketch.com -->
    <title>android</title>
    <desc>Created with Sketch.</desc>
    <g id="Symbols" stroke="none" stroke-width="1" fill="none" fill-rule="evenodd">
        <g id="Footer" transform="translate(-222.000000, -489.000000)" fill="#000000" fill-rule="nonzero">
            <g id="Android" transform="translate(211.000000, 480.500000)">
                <g id="android" transform="translate(11.000000, 9.000000)">
                    <path d="M9.91599015,6.18089163 L3.08509852,6.18089163 C2.8965665,6.18089163 2.74354433,6.33391379 2.74354433,6.52244581 L2.74354433,11.9871527 C2.74354433,12.8123325 3.33100985,13.5015567 4.10972906,13.6607266 L4.10972906,15.4025985 C4.10972906,15.9675222 4.56943596,16.4272291 5.13435961,16.4272291 C5.69928325,16.4272291 6.15899015,15.9675222 6.15899015,15.4025985 L6.15899015,13.6948916 L6.8420665,13.6948916 L6.8420665,15.4025985 C6.8420665,15.9675222 7.3017734,16.4272291 7.86669704,16.4272291 C8.43162069,16.4272291 8.89132759,15.9675222 8.89132759,15.4025985 L8.89132759,13.6607266 C9.6700468,13.5022611 10.2575123,12.8123325 10.2575123,11.9871527 L10.2575123,6.52244581 C10.2575123,6.33324138 10.1045222,6.18089163 9.91599015,6.18089163 Z" id="Path"></path>
                    <path d="M8.28817241,1.8521798 L8.86401478,0.508536946 C8.93846059,0.335022167 8.857867,0.134899015 8.68435222,0.0604211823 C8.5128867,-0.014729064 8.31000985,0.0658965517 8.23623645,0.240083744 L7.66039409,1.58439901 C7.2949532,1.46554187 6.9055936,1.3992931 6.50118473,1.3992931 C6.09680788,1.3992931 5.70744828,1.46554187 5.34197537,1.58439901 L4.7648202,0.240083744 C4.6910468,0.0658965517 4.48816995,-0.0154014778 4.31670443,0.0604211823 C4.14318966,0.134866995 4.06326847,0.335694581 4.13774631,0.508536946 L4.71358867,1.8521798 C3.54073892,2.48882759 2.74357635,3.73135222 2.74357635,5.15626108 C2.74357635,5.3447931 2.89659852,5.49781527 3.08513054,5.49781527 L9.91599015,5.49781527 C10.1045222,5.49781527 10.2575443,5.3447931 10.2575443,5.15626108 C10.2575443,3.73135222 9.46034975,2.48882759 8.28817241,1.8521798 Z M5.13435961,4.13163054 C4.94582759,4.13163054 4.79280542,3.97860837 4.79280542,3.79007635 C4.79280542,3.60154433 4.94582759,3.44852217 5.13435961,3.44852217 C5.32289163,3.44852217 5.47591379,3.60154433 5.47591379,3.79007635 C5.47591379,3.97860837 5.32289163,4.13163054 5.13435961,4.13163054 Z M7.86672906,4.13163054 C7.67819704,4.13163054 7.52517488,3.97860837 7.52517488,3.79007635 C7.52517488,3.60154433 7.67819704,3.44852217 7.86672906,3.44852217 C8.05526108,3.44852217 8.20828325,3.60154433 8.20828325,3.79007635 C8.20828325,3.97860837 8.05526108,4.13163054 7.86672906,4.13163054 Z" id="Shape"></path>
                    <path d="M11.9652512,6.18089163 C11.4003276,6.18089163 10.9406207,6.64059852 10.9406207,7.20552217 L10.9406207,10.620968 C10.9406207,11.1858916 11.4003276,11.6455985 11.9652512,11.6455985 C12.5301749,11.6455985 12.9898818,11.1858916 12.9898818,10.620968 L12.9898818,7.20552217 C12.9898818,6.64063054 12.5301749,6.18089163 11.9652512,6.18089163 Z" id="Path"></path>
                    <path d="M1.03583744,6.18089163 C0.470913793,6.18089163 0.0112068966,6.64059852 0.0112068966,7.20552217 L0.0112068966,10.620968 C0.0112068966,11.1858916 0.470913793,11.6455985 1.03583744,11.6455985 C1.60076108,11.6455985 2.06046798,11.1858916 2.06046798,10.620968 L2.06046798,7.20552217 C2.06046798,6.64063054 1.60076108,6.18089163 1.03583744,6.18089163 Z" id="Path"></path>
                </g>
            </g>
        </g>
    </g>
</svg>