<?xml version="1.0" encoding="UTF-8"?>
<svg width="13px" height="17px" viewBox="0 0 13 17" version="1.1" xmlns="http://www.w3.org/2000/svg" xmlns:xlink="http://www.w3.org/1999/xlink">
    <!-- Generator: Sketch 63.1 (92452) - https://sketch.com -->
    <title>ios</title>
    <desc>Created with Sketch.</desc>
    <g id="Symbols" stroke="none" stroke-width="1" fill="none" fill-rule="evenodd">
        <g id="Footer" transform="translate(-179.000000, -490.000000)" fill="#000000" fill-rule="nonzero">
            <g id="Apple" transform="translate(168.000000, 480.500000)">
                <g id="ios" transform="translate(11.000000, 10.000000)">
                    <path d="M4.31027381,15.847619 C1.95167143,15.834031 0.000680952381,11.0193262 0.000680952381,8.56730952 C0.000680952381,4.56194762 3.00538333,3.68506667 4.16337381,3.68506667 C4.68523095,3.68506667 5.24246667,3.89000238 5.73395952,4.07135238 C6.07765476,4.19785476 6.4331119,4.32844286 6.63080476,4.32844286 C6.74913571,4.32844286 7.02798571,4.21735476 7.27418095,4.11988571 C7.79922619,3.91086429 8.45256905,3.65108095 9.21337857,3.65108095 C9.21474048,3.65108095 9.21656667,3.65108095 9.21789762,3.65108095 C9.78599762,3.65108095 11.5084976,3.77575714 12.5440714,5.33092857 L12.7866452,5.69545476 L12.4375333,5.95889048 C11.9387976,6.33520952 11.0287976,7.02167143 11.0287976,8.38144048 C11.0287976,9.99192381 12.0593881,10.611281 12.5545024,10.9091667 C12.7730571,11.0406524 12.9992881,11.1762238 12.9992881,11.4727476 C12.9992881,11.6663548 11.4540833,15.8236 9.21019048,15.8236 C8.66112619,15.8236 8.27301429,15.6585619 7.93068095,15.5130238 C7.58429286,15.3656595 7.28547857,15.2387238 6.79172619,15.2387238 C6.54144524,15.2387238 6.22495714,15.3570548 5.88989762,15.4826595 C5.43201905,15.6535476 4.91375238,15.847619 4.3256881,15.847619 L4.31027381,15.847619 Z" id="Path"></path>
                    <path d="M9.45109286,0 C9.50953095,2.10711429 8.00261429,3.56893333 6.4974619,3.47725238 C6.24944048,1.79570238 8.00242857,0 9.45109286,0 Z" id="Path"></path>
                </g>
            </g>
        </g>
    </g>
</svg>