<?xml version="1.0" encoding="UTF-8"?>
<svg width="84px" height="14px" viewBox="0 0 84 14" version="1.1" xmlns="http://www.w3.org/2000/svg" xmlns:xlink="http://www.w3.org/1999/xlink">
    <!-- Generator: Sketch 63.1 (92452) - https://sketch.com -->
    <title>logo</title>
    <desc>Created with Sketch.</desc>
    <g id="Symbols" stroke="none" stroke-width="1" fill="none" fill-rule="evenodd">
        <g id="Header" transform="translate(-27.000000, -16.000000)" fill="#ffffff" fill-rule="nonzero">
            <g id="logo" transform="translate(27.000000, 16.000000)">
                <path d="M21.1376953,13 L21.1376953,7.61914063 L23.9487305,7.61914063 C24.4187826,7.61914063 24.8022461,7.63460286 25.0991211,7.66552734 L25.0991211,7.66552734 L25.0712891,5.37402344 C24.9352214,5.41113281 24.5270182,5.4296875 23.8466797,5.4296875 L21.1376953,5.4296875 L21.1376953,2.87841797 L24.2084961,2.87841797 C24.7960612,2.87841797 25.2537435,2.92480469 25.581543,3.01757812 L25.581543,3.01757812 L25.6000977,2.98974609 C25.5877279,2.94026693 25.581543,2.86604818 25.581543,2.76708984 C25.581543,1.85791016 25.6155599,1.1311849 25.6835938,0.586914062 C24.2981771,0.636393229 22.8447266,0.661132812 21.3232422,0.661132812 C20.8160807,0.661132812 20.327474,0.654947917 19.8574219,0.642578125 L19.8574219,0.642578125 L19.1708984,0.624023438 C18.9544271,0.617838542 18.7626953,0.608561198 18.5957031,0.596191406 L18.5957031,0.596191406 L18.5957031,13 L21.1376953,13 Z M33.286377,13.2319336 C34.0069173,13.2319336 34.6362305,13.1608073 35.1743164,13.0185547 C36.269043,12.7278646 37.2122396,12.1959635 38.0039062,11.4228516 C39.2903646,10.1673177 39.9335938,8.59326172 39.9335938,6.70068359 C39.9335938,4.74625651 39.3089193,3.19384766 38.0595703,2.04345703 C36.890625,0.967285156 35.4526367,0.429199219 33.7456055,0.429199219 C32.7560221,0.429199219 31.8623047,0.610107422 31.0644531,0.971923828 C30.2666016,1.33374023 29.586263,1.82080078 29.0234375,2.43310547 C28.460612,3.04541016 28.0276693,3.75358073 27.7246094,4.55761719 C27.4215495,5.36165365 27.2700195,6.21362305 27.2700195,7.11352539 C27.2700195,8.01342773 27.432373,8.84065755 27.7570801,9.59521484 C28.0817871,10.3497721 28.5255534,10.9960938 29.0883789,11.5341797 C29.6512044,12.0722656 30.3114421,12.4897461 31.0690918,12.7866211 C31.8267415,13.0834961 32.5658366,13.2319336 33.286377,13.2319336 Z M33.7270508,10.9125977 C32.5890299,10.9125977 31.6582031,10.5476888 30.9345703,9.81787109 C30.594401,9.47151693 30.3284505,9.05712891 30.1367188,8.57470703 C29.944987,8.09228516 29.8491211,7.56347656 29.8491211,6.98828125 C29.8491211,5.78222656 30.1676432,4.78027344 30.8046875,3.98242188 C31.485026,3.12890625 32.4034831,2.70214844 33.5600586,2.70214844 C34.7537435,2.70214844 35.6938477,3.12272135 36.3803711,3.96386719 C37.0174154,4.74934896 37.3359375,5.72965495 37.3359375,6.90478516 C37.3359375,8.15413411 37.0019531,9.140625 36.3339844,9.86425781 C35.6783854,10.563151 34.8094076,10.9125977 33.7270508,10.9125977 Z M45.175293,13 L45.1845703,0.586914062 C44.9866536,0.636393229 44.7237956,0.661132812 44.3959961,0.661132812 L44.3959961,0.661132812 L43.7280273,0.661132812 C43.5981445,0.661132812 43.2239583,0.648763021 42.6054688,0.624023438 L42.6054688,0.624023438 L42.6054688,13 L45.175293,13 Z M55.862793,13.0742188 L56.7348633,10.328125 L60.9282227,10.328125 L61.800293,13 L63.6557617,13 C63.9773763,13.0123698 64.1381836,13.0185547 64.1381836,13.0185547 C64.3051758,13.0185547 64.4505208,13.0216471 64.5742188,13.027832 L64.5742188,13.027832 L60.4550781,1.70019531 C60.2695312,1.19303385 60.1767578,0.880696615 60.1767578,0.763183594 C60.1767578,0.719889323 60.1829427,0.685872396 60.1953125,0.661132812 L60.1953125,0.661132812 L60.1860352,0.642578125 C59.6665039,0.654947917 59.2211914,0.661132812 58.8500977,0.661132812 C58.3986003,0.661132812 57.9718424,0.651855469 57.5698242,0.633300781 L57.5698242,0.633300781 L57.5605469,0.651855469 C57.5667318,0.670410156 57.5698242,0.721435547 57.5698242,0.804931641 C57.5698242,0.888427734 57.4801432,1.18375651 57.3007812,1.69091797 L57.3007812,1.69091797 L53.2651367,13 L53.9980469,13 C54.7093099,13 55.3308919,13.0247396 55.862793,13.0742188 L55.862793,13.0742188 Z M60.2045898,8.1015625 L57.4399414,8.1015625 L58.8037109,3.78759766 L60.2045898,8.1015625 Z M68.2573242,13 L68.2573242,9.60449219 C68.449056,9.62304688 68.6253255,9.63232422 68.7861328,9.63232422 C70.1962891,9.63232422 71.3497721,9.24886068 72.246582,8.48193359 C73.2052409,7.66552734 73.6845703,6.55533854 73.6845703,5.15136719 C73.6845703,3.58040365 73.2469889,2.40063477 72.3718262,1.61206055 C71.4966634,0.823486328 70.2179362,0.429199219 68.5356445,0.429199219 C67.6326497,0.429199219 66.7513021,0.484863281 65.8916016,0.596191406 L65.8916016,0.596191406 L65.8916016,13 L68.2573242,13 Z M68.980957,7.60058594 C68.6964518,7.60058594 68.4552409,7.58821615 68.2573242,7.56347656 L68.2573242,7.56347656 L68.2573242,2.68359375 C68.4428711,2.67122396 68.628418,2.66503906 68.8139648,2.66503906 C70.4777018,2.66503906 71.3095703,3.48763021 71.3095703,5.1328125 C71.3095703,5.8688151 71.0900065,6.4625651 70.6508789,6.9140625 C70.4405924,7.13053385 70.1808268,7.29907227 69.871582,7.41967773 C69.5623372,7.5402832 69.2654622,7.60058594 68.980957,7.60058594 Z M77.7758789,13 L77.7758789,9.60449219 C77.9676107,9.62304688 78.1438802,9.63232422 78.3046875,9.63232422 C79.7148438,9.63232422 80.8683268,9.24886068 81.7651367,8.48193359 C82.7237956,7.66552734 83.203125,6.55533854 83.203125,5.15136719 C83.203125,3.58040365 82.7655436,2.40063477 81.8903809,1.61206055 C81.0152181,0.823486328 79.7364909,0.429199219 78.0541992,0.429199219 C77.1512044,0.429199219 76.2698568,0.484863281 75.4101562,0.596191406 L75.4101562,0.596191406 L75.4101562,13 L77.7758789,13 Z M78.4995117,7.60058594 C78.2150065,7.60058594 77.9737956,7.58821615 77.7758789,7.56347656 L77.7758789,7.56347656 L77.7758789,2.68359375 C77.9614258,2.67122396 78.1469727,2.66503906 78.3325195,2.66503906 C79.9962565,2.66503906 80.828125,3.48763021 80.828125,5.1328125 C80.828125,5.8688151 80.6085612,6.4625651 80.1694336,6.9140625 C79.9591471,7.13053385 79.6993815,7.29907227 79.3901367,7.41967773 C79.0808919,7.5402832 78.7840169,7.60058594 78.4995117,7.60058594 Z" id="FOIAPP"></path>
                <g id="texture-24px">
                    <path d="M6.415,0.125 L0.125,6.415 L0.125,8.41958333 L8.41958333,0.125 L6.415,0.125 Z M0.125,1.54166667 L0.125,2.95833333 L2.95833333,0.125 L1.54166667,0.125 C0.7625,0.125 0.125,0.7625 0.125,1.54166667 Z M11.8195833,0.181666667 L0.181666667,11.8195833 C0.245416667,12.0604167 0.372916667,12.28 0.542916667,12.4570833 C0.72,12.6270833 0.939583333,12.7545833 1.18041667,12.8183333 L12.8254167,1.18041667 C12.6908333,0.691666667 12.3083333,0.309166667 11.8195833,0.181666667 Z M12.875,4.58041667 L4.58041667,12.875 L6.585,12.875 L12.875,6.585 L12.875,4.58041667 Z M12.4570833,12.4570833 C12.7191667,12.2020833 12.875,11.8479167 12.875,11.4583333 L12.875,10.0416667 L10.0416667,12.875 L11.4583333,12.875 C11.8479167,12.875 12.2020833,12.7191667 12.4570833,12.4570833 Z" id="Shape"></path>
                </g>
            </g>
        </g>
    </g>
</svg>