<?xml version="1.0" encoding="UTF-8"?>
<svg width="20px" height="20px" viewBox="0 0 20 20" version="1.1" xmlns="http://www.w3.org/2000/svg" xmlns:xlink="http://www.w3.org/1999/xlink">
    <!-- Generator: Sketch 63.1 (92452) - https://sketch.com -->
    <title>youtube</title>
    <desc>Created with Sketch.</desc>
    <g id="Symbols" stroke="none" stroke-width="1" fill="none" fill-rule="evenodd">
        <g id="Footer" transform="translate(-1120.000000, -465.000000)" fill-rule="nonzero">
            <g id="youtube" transform="translate(1120.000000, 465.000000)">
                <polygon id="Path" fill="#FFF8F8" points="8.75442504 11.8734741 12.0072937 10 8.75442504 8.12652586"></polygon>
                <path d="M10,0 C4.47799684,0 0,4.47799684 0,10 C0,15.5220032 4.47799684,20 10,20 C15.5220032,20 20,15.5220032 20,10 C20,4.47799684 15.5220032,0 10,0 Z M16.2485279,10.0102234 C16.2485279,10.0102234 16.2485279,12.0382691 15.9912109,13.0162048 C15.8470154,13.5514832 15.4249573,13.9735413 14.8896789,14.1175842 C13.9117432,14.375 10,14.375 10,14.375 C10,14.375 6.09848023,14.375 5.11032105,14.1073609 C4.57504273,13.9633179 4.15298461,13.5411072 4.00878906,13.0058289 C3.75137328,12.0382691 3.75137328,10 3.75137328,10 C3.75137328,10 3.75137328,7.97210695 4.00878906,6.99417113 C4.15283203,6.45889281 4.58526609,6.02645875 5.11032105,5.88241578 C6.08825684,5.625 10,5.625 10,5.625 C10,5.625 13.9117432,5.625 14.8896789,5.89263914 C15.4249573,6.03668211 15.8470154,6.45889281 15.9912109,6.99417113 C16.2588501,7.97210695 16.2485279,10.0102234 16.2485279,10.0102234 L16.2485279,10.0102234 Z" id="Shape" fill="#FFFFFF"></path>
            </g>
        </g>
    </g>
</svg>